<svg viewBox="0 0 420 420" xmlns="http://www.w3.org/2000/svg">
  <defs>
    <linearGradient id="newGrad" x1="0" y1="0" x2="1" y2="1">
      <stop offset="0%" stop-color="#1E56A0"/>
      <stop offset="100%" stop-color="#0D2149"/>
    </linearGradient>
  </defs>
  <circle cx="210" cy="210" r="190" fill="url(#newGrad)" opacity="0.08"/>
  <circle cx="210" cy="210" r="140" fill="url(#newGrad)" opacity="0.10"/>

  <!-- showroom building -->
  <g>
    <polygon points="70,190 210,120 350,190 350,200 70,200" fill="#0D2149"/>
    <rect x="85" y="200" width="250" height="110" fill="#F8F9FA" stroke="#1E56A0" stroke-width="3"/>
    <rect x="100" y="215" width="80" height="70" fill="#1E56A0" opacity="0.18"/>
    <rect x="240" y="215" width="80" height="70" fill="#1E56A0" opacity="0.18"/>
    <rect x="192" y="240" width="36" height="70" fill="#1E56A0"/>
  </g>

  <!-- flag -->
  <line x1="330" y1="130" x2="330" y2="185" stroke="#0D2149" stroke-width="4"/>
  <polygon points="330,132 372,144 330,156" fill="#F4A261"/>

  <!-- car in front -->
  <g transform="translate(150,300)">
    <path d="M0 20 C0 10 8 2 20 2 L28 -10 C32 -18 42 -22 52 -22 L96 -22 C106 -22 116 -18 120 -10 L128 2 C140 2 148 10 148 20 L148 26 C148 30 145 33 141 33 L7 33 C3 33 0 30 0 26 Z" fill="#00A896"/>
    <circle cx="30" cy="33" r="12" fill="#0D2149"/>
    <circle cx="118" cy="33" r="12" fill="#0D2149"/>
  </g>

  <!-- sparkle: new badge -->
  <g transform="translate(300,250)">
    <circle r="26" fill="#F4A261"/>
    <text x="0" y="6" font-family="Arial, sans-serif" font-size="16" font-weight="700" fill="#0D2149" text-anchor="middle">0km</text>
  </g>
</svg>
