<svg viewBox="0 0 420 420" xmlns="http://www.w3.org/2000/svg">
  <defs>
    <linearGradient id="usedGrad" x1="0" y1="0" x2="1" y2="1">
      <stop offset="0%" stop-color="#F4A261"/>
      <stop offset="100%" stop-color="#1E56A0"/>
    </linearGradient>
  </defs>
  <circle cx="210" cy="210" r="190" fill="url(#usedGrad)" opacity="0.08"/>
  <circle cx="210" cy="210" r="140" fill="url(#usedGrad)" opacity="0.10"/>

  <!-- lot ground -->
  <rect x="40" y="300" width="340" height="8" rx="4" fill="#0D2149" opacity="0.14"/>
  <line x1="90" y1="308" x2="70" y2="330" stroke="#0D2149" stroke-width="3" opacity="0.2"/>
  <line x1="180" y1="308" x2="165" y2="330" stroke="#0D2149" stroke-width="3" opacity="0.2"/>
  <line x1="270" y1="308" x2="258" y2="330" stroke="#0D2149" stroke-width="3" opacity="0.2"/>

  <!-- back car -->
  <g transform="translate(60,235) scale(0.8)" opacity="0.7">
    <path d="M0 40 C0 28 10 18 24 18 L34 -2 C39 -12 51 -18 63 -18 L118 -18 C130 -18 142 -12 147 -2 L157 18 C171 18 181 28 181 40 L181 48 C181 53 177 57 172 57 L9 57 C4 57 0 53 0 48 Z" fill="#1E56A0"/>
    <circle cx="36" cy="57" r="15" fill="#0D2149"/>
    <circle cx="144" cy="57" r="15" fill="#0D2149"/>
  </g>

  <!-- front car -->
  <g transform="translate(150,255)">
    <path d="M0 44 C0 30 11 20 26 20 L37 -3 C43 -14 56 -20 69 -20 L128 -20 C142 -20 155 -14 161 -3 L172 20 C187 20 198 30 198 44 L198 52 C198 58 193 62 187 62 L11 62 C5 62 0 58 0 52 Z" fill="#F4A261"/>
    <path d="M52 0 L62 -18 L136 -18 L150 0 Z" fill="#F8F9FA" opacity="0.9"/>
    <circle cx="40" cy="62" r="17" fill="#0D2149"/>
    <circle cx="40" cy="62" r="7" fill="#F8F9FA"/>
    <circle cx="158" cy="62" r="17" fill="#0D2149"/>
    <circle cx="158" cy="62" r="7" fill="#F8F9FA"/>
  </g>

  <!-- price tag -->
  <g transform="translate(300,180) rotate(18)">
    <path d="M0 0 L46 0 L60 14 L46 28 L0 28 Z" fill="#0D2149"/>
    <circle cx="14" cy="14" r="5" fill="#F8F9FA"/>
  </g>
</svg>
